Amstelvar-Roman-YTFG-min.ufo
<glyph name="quotedbl" format="1">
  <advance width="974"/>
  <unicode hex="0022"/>
  <outline>
    <contour>
      <point x="244" y="364" type="line"/>
      <point x="168" y="823" type="line"/>
      <point x="168" y="871"/>
      <point x="229" y="958"/>
      <point x="292" y="958" type="qcurve" smooth="yes"/>
      <point x="355" y="958"/>
      <point x="416" y="871"/>
      <point x="416" y="823" type="qcurve"/>
      <point x="338" y="364" type="line"/>
    </contour>
    <contour>
      <point x="634" y="364" type="line"/>
      <point x="558" y="823" type="line"/>
      <point x="558" y="871"/>
      <point x="619" y="958"/>
      <point x="682" y="958" type="qcurve" smooth="yes"/>
      <point x="745" y="958"/>
      <point x="806" y="871"/>
      <point x="806" y="823" type="qcurve"/>
      <point x="728" y="364" type="line"/>
    </contour>
  </outline>
</glyph>
<glyph name="numbersign" format="1">
  <advance width="1324"/>
  <unicode hex="0023"/>
  <outline>
    <contour>
      <point x="5" y="187" type="line"/>
      <point x="5" y="359" type="line"/>
      <point x="1184" y="359" type="line"/>
      <point x="1184" y="187" type="line"/>
    </contour>
    <contour>
      <point x="110" y="587" type="line"/>
      <point x="110" y="759" type="line"/>
      <point x="1289" y="759" type="line"/>
      <point x="1289" y="587" type="line"/>
    </contour>
    <contour>
      <point x="168" y="-57" type="line"/>
      <point x="568" y="1021" type="line"/>
      <point x="678" y="991" type="line"/>
      <point x="278" y="-87" type="line"/>
    </contour>
    <contour>
      <point x="627" y="-57" type="line"/>
      <point x="1027" y="1021" type="line"/>
      <point x="1137" y="991" type="line"/>
      <point x="737" y="-87" type="line"/>
    </contour>
  </outline>
</glyph>
<glyph name="dollar" format="1">
  <advance width="1107"/>
  <unicode hex="0024"/>
  <outline>
    <contour>
      <point x="56" y="239" type="qcurve"/>
      <point x="164" y="306" type="line"/>
      <point x="219" y="232"/>
      <point x="444" y="132"/>
      <point x="592" y="132" type="qcurve" smooth="yes"/>
      <point x="725" y="132"/>
      <point x="891" y="182"/>
      <point x="891" y="245" type="qcurve" smooth="yes"/>
      <point x="891" y="324"/>
      <point x="713" y="380"/>
      <point x="517" y="403" type="qcurve" smooth="yes"/>
      <point x="305" y="428"/>
      <point x="121" y="543"/>
      <point x="121" y="648" type="qcurve" smooth="yes"/>
      <point x="121" y="763"/>
      <point x="352" y="901"/>
      <point x="554" y="901" type="qcurve" smooth="yes"/>
      <point x="677" y="901"/>
      <point x="896" y="836"/>
      <point x="975" y="773" type="qcurve"/>
      <point x="899" y="667" type="line"/>
      <point x="844" y="709"/>
      <point x="673" y="778"/>
      <point x="558" y="778" type="qcurve" smooth="yes"/>
      <point x="423" y="778"/>
      <point x="281" y="731"/>
      <point x="281" y="675" type="qcurve" smooth="yes"/>
      <point x="281" y="636"/>
      <point x="401" y="576"/>
      <point x="616" y="553" type="qcurve" smooth="yes"/>
      <point x="837" y="529"/>
      <point x="1051" y="409"/>
      <point x="1051" y="272" type="qcurve" smooth="yes"/>
      <point x="1051" y="139"/>
      <point x="790" y="1"/>
      <point x="603" y="1" type="qcurve" smooth="yes"/>
      <point x="419" y="1"/>
      <point x="131" y="125"/>
    </contour>
    <contour>
      <point x="491" y="-190" type="line"/>
      <point x="491" y="52" type="line"/>
      <point x="515" y="52" type="line"/>
      <point x="515" y="500" type="line"/>
      <point x="630" y="478" type="line"/>
      <point x="630" y="52" type="line"/>
      <point x="657" y="52" type="line"/>
      <point x="657" y="-140" type="line"/>
    </contour>
    <contour>
      <point x="490" y="1010" type="line"/>
      <point x="656" y="1049" type="line"/>
      <point x="656" y="858" type="line"/>
      <point x="630" y="858" type="line"/>
      <point x="630" y="478" type="line"/>
      <point x="515" y="500" type="line"/>
      <point x="515" y="858" type="line"/>
      <point x="490" y="858" type="line"/>
    </contour>
  </outline>
</glyph>
<glyph name="quotesingle" format="2">
  <advance width="584"/>
  <unicode hex="0027"/>
  <outline>
    <contour>
      <point x="254" y="364" type="line"/>
      <point x="168" y="823" type="line"/>
      <point x="168" y="871"/>
      <point x="229" y="958"/>
      <point x="292" y="958" type="qcurve" smooth="yes"/>
      <point x="355" y="958"/>
      <point x="416" y="871"/>
      <point x="416" y="823" type="qcurve"/>
      <point x="328" y="364" type="line"/>
    </contour>
  </outline>
</glyph>
<glyph name="plus" format="1">
  <advance width="1024"/>
  <unicode hex="002B"/>
  <outline>
    <contour>
      <point x="80" y="364" type="line"/>
      <point x="80" y="516" type="line"/>
      <point x="944" y="516" type="line"/>
      <point x="944" y="364" type="line"/>
    </contour>
    <contour>
      <point x="432" y="8" type="line"/>
      <point x="432" y="872" type="line"/>
      <point x="592" y="872" type="line"/>
      <point x="592" y="8" type="line"/>
    </contour>
  </outline>
</glyph>
<glyph name="slash" format="1">
  <advance width="656"/>
  <unicode hex="002F"/>
  <outline>
    <contour>
      <point x="48" y="-118" type="line"/>
      <point x="425" y="895" type="line"/>
      <point x="566" y="852" type="line"/>
      <point x="189" y="-161" type="line"/>
    </contour>
  </outline>
</glyph>
<glyph name="zero" format="1">
  <advance width="1176"/>
  <unicode hex="0030"/>
  <outline>
    <contour>
      <point x="74" y="423" type="qcurve" smooth="yes"/>
      <point x="74" y="624"/>
      <point x="365" y="872"/>
      <point x="589" y="872" type="qcurve" smooth="yes"/>
      <point x="818" y="872"/>
      <point x="1102" y="627"/>
      <point x="1102" y="428" type="qcurve" smooth="yes"/>
      <point x="1102" y="241"/>
      <point x="823" y="-22"/>
      <point x="594" y="-22" type="qcurve" smooth="yes"/>
      <point x="362" y="-22"/>
      <point x="74" y="222"/>
    </contour>
    <contour>
      <point x="259" y="433" type="qcurve" smooth="yes"/>
      <point x="260" y="286"/>
      <point x="440" y="91"/>
      <point x="587" y="91" type="qcurve" smooth="yes"/>
      <point x="746" y="91"/>
      <point x="915" y="269"/>
      <point x="917" y="419" type="qcurve" smooth="yes"/>
      <point x="919" y="560"/>
      <point x="739" y="742"/>
      <point x="590" y="742" type="qcurve" smooth="yes"/>
      <point x="429" y="742"/>
      <point x="258" y="577"/>
    </contour>
  </outline>
</glyph>
<glyph name="one" format="1">
  <advance width="840"/>
  <unicode hex="0031"/>
  <outline>
    <contour>
      <point x="84" y="0" type="line"/>
      <point x="84" y="94" type="line"/>
      <point x="342" y="129" type="line"/>
      <point x="342" y="423" type="line"/>
      <point x="340" y="707" type="line"/>
      <point x="82" y="741" type="line"/>
      <point x="82" y="845" type="line"/>
      <point x="492" y="868" type="line"/>
      <point x="524" y="833" type="line"/>
      <point x="518" y="423" type="line"/>
      <point x="518" y="129" type="line"/>
      <point x="776" y="94" type="line"/>
      <point x="776" y="0" type="line"/>
    </contour>
  </outline>
</glyph>
<glyph name="two" format="1">
  <advance width="966"/>
  <unicode hex="0032"/>
  <outline>
    <contour>
      <point x="32" y="0" type="line"/>
      <point x="32" y="160" type="line"/>
      <point x="41" y="244"/>
      <point x="210" y="392"/>
      <point x="401" y="452" type="qcurve" smooth="yes"/>
      <point x="572" y="506"/>
      <point x="721" y="571"/>
      <point x="721" y="625" type="qcurve" smooth="yes"/>
      <point x="721" y="679"/>
      <point x="586" y="741"/>
      <point x="480" y="741" type="qcurve" smooth="yes"/>
      <point x="360" y="741"/>
      <point x="178" y="697"/>
      <point x="102" y="651" type="qcurve"/>
      <point x="22" y="755" type="line"/>
      <point x="94" y="804"/>
      <point x="316" y="872"/>
      <point x="500" y="872" type="qcurve" smooth="yes"/>
      <point x="698" y="872"/>
      <point x="913" y="769"/>
      <point x="913" y="665" type="qcurve" smooth="yes"/>
      <point x="913" y="545"/>
      <point x="715" y="396"/>
      <point x="500" y="331" type="qcurve" smooth="yes"/>
      <point x="310" y="274"/>
      <point x="192" y="208"/>
      <point x="177" y="177" type="qcurve"/>
      <point x="187" y="166" type="line"/>
      <point x="956" y="166" type="line"/>
      <point x="956" y="0" type="line"/>
    </contour>
  </outline>
</glyph>
<glyph name="three" format="1">
  <advance width="953"/>
  <unicode hex="0033"/>
  <outline>
    <contour>
      <point x="4" y="143" type="qcurve"/>
      <point x="75" y="248" type="line"/>
      <point x="160" y="169"/>
      <point x="330" y="103"/>
      <point x="457" y="103" type="qcurve" smooth="yes"/>
      <point x="583" y="103"/>
      <point x="732" y="183"/>
      <point x="732" y="258" type="qcurve" smooth="yes"/>
      <point x="732" y="332"/>
      <point x="505" y="400"/>
      <point x="352" y="400" type="qcurve" smooth="yes"/>
      <point x="266" y="400" type="line"/>
      <point x="239" y="502" type="line"/>
      <point x="364" y="504" type="line" smooth="yes"/>
      <point x="521" y="507"/>
      <point x="700" y="571"/>
      <point x="700" y="639" type="qcurve" smooth="yes"/>
      <point x="700" y="691"/>
      <point x="571" y="753"/>
      <point x="472" y="753" type="qcurve" smooth="yes"/>
      <point x="367" y="753"/>
      <point x="212" y="712"/>
      <point x="127" y="668" type="qcurve"/>
      <point x="67" y="766" type="line"/>
      <point x="146" y="816"/>
      <point x="347" y="871"/>
      <point x="486" y="871" type="qcurve" smooth="yes"/>
      <point x="671" y="871"/>
      <point x="886" y="762"/>
      <point x="886" y="676" type="qcurve" smooth="yes"/>
      <point x="886" y="585"/>
      <point x="716" y="474"/>
      <point x="599" y="456" type="qcurve"/>
      <point x="599" y="452" type="line"/>
      <point x="731" y="444"/>
      <point x="922" y="349"/>
      <point x="922" y="241" type="qcurve" smooth="yes"/>
      <point x="922" y="120"/>
      <point x="654" y="-22"/>
      <point x="475" y="-22" type="qcurve" smooth="yes"/>
      <point x="297" y="-22"/>
      <point x="71" y="76"/>
    </contour>
  </outline>
</glyph>
<glyph name="four" format="1">
  <advance width="1170"/>
  <unicode hex="0034"/>
  <outline>
    <contour>
      <point x="6" y="344" type="line"/>
      <point x="726" y="897" type="line"/>
      <point x="823" y="860" type="line"/>
      <point x="855" y="809" type="line"/>
      <point x="849" y="414" type="line"/>
      <point x="849" y="129" type="line"/>
      <point x="1077" y="94" type="line"/>
      <point x="1077" y="0" type="line"/>
      <point x="435" y="0" type="line"/>
      <point x="435" y="94" type="line"/>
      <point x="673" y="129" type="line"/>
      <point x="682" y="429" type="line"/>
      <point x="682" y="733" type="line"/>
      <point x="205" y="364" type="line"/>
      <point x="211" y="354" type="line"/>
      <point x="1130" y="328" type="line"/>
      <point x="1130" y="232" type="line"/>
      <point x="26" y="228" type="line"/>
    </contour>
  </outline>
</glyph>
<glyph name="five" format="1">
  <advance width="974"/>
  <unicode hex="0035"/>
  <outline>
    <contour>
      <point x="2" y="143" type="qcurve"/>
      <point x="71" y="250" type="line"/>
      <point x="124" y="200"/>
      <point x="310" y="111"/>
      <point x="456" y="111" type="qcurve" smooth="yes"/>
      <point x="598" y="111"/>
      <point x="769" y="207"/>
      <point x="769" y="292" type="qcurve" smooth="yes"/>
      <point x="769" y="388"/>
      <point x="507" y="458"/>
      <point x="314" y="446" type="qcurve" smooth="yes"/>
      <point x="157" y="436" type="line"/>
      <point x="114" y="490" type="line"/>
      <point x="182" y="817" type="line"/>
      <point x="209" y="850" type="line"/>
      <point x="868" y="850" type="line"/>
      <point x="858" y="674" type="line"/>
      <point x="274" y="674" type="line"/>
      <point x="264" y="663" type="line"/>
      <point x="232" y="545" type="line"/>
      <point x="303" y="569" type="line"/>
      <point x="564" y="605"/>
      <point x="956" y="466"/>
      <point x="956" y="303" type="qcurve" smooth="yes"/>
      <point x="956" y="149"/>
      <point x="678" y="-22"/>
      <point x="482" y="-22" type="qcurve" smooth="yes"/>
      <point x="312" y="-22"/>
      <point x="71" y="73"/>
    </contour>
  </outline>
</glyph>
<glyph name="seven" format="1">
  <advance width="965"/>
  <unicode hex="0037"/>
  <outline>
    <contour>
      <point x="24.0" y="448.0" type="line"/>
      <point x="46.0" y="850.0" type="line"/>
      <point x="985.0" y="850.0" type="line"/>
      <point x="985.0" y="759.0" type="line"/>
      <point x="604" y="275" type="line"/>
      <point x="361.0" y="-53.0" type="line"/>
      <point x="247.0" y="-53.0" type="line"/>
      <point x="247.0" y="20.0" type="line"/>
      <point x="508" y="345" type="line"/>
      <point x="758.0" y="670.0" type="line"/>
      <point x="742.0" y="682.0" type="line"/>
      <point x="182.0" y="682.0" type="line"/>
      <point x="146.0" y="448.0" type="line"/>
    </contour>
  </outline>
</glyph>
<glyph name="eight" format="1">
  <advance width="1056"/>
  <unicode hex="0038"/>
  <outline>
    <contour>
      <point x="42" y="218" type="qcurve" smooth="yes"/>
      <point x="42" y="327"/>
      <point x="280" y="457"/>
      <point x="414" y="483" type="qcurve"/>
      <point x="455" y="426" type="line"/>
      <point x="353" y="404"/>
      <point x="180" y="313"/>
      <point x="180" y="236" type="qcurve" smooth="yes"/>
      <point x="180" y="166"/>
      <point x="381" y="90"/>
      <point x="543" y="90" type="qcurve" smooth="yes"/>
      <point x="705" y="90"/>
      <point x="871" y="164"/>
      <point x="871" y="229" type="qcurve" smooth="yes"/>
      <point x="871" y="292"/>
      <point x="714" y="349"/>
      <point x="518" y="375" type="qcurve" smooth="yes"/>
      <point x="297" y="404"/>
      <point x="132" y="541"/>
      <point x="132" y="638" type="qcurve" smooth="yes"/>
      <point x="132" y="746"/>
      <point x="398" y="877"/>
      <point x="557" y="877" type="qcurve" smooth="yes"/>
      <point x="721" y="877"/>
      <point x="935" y="752"/>
      <point x="935" y="675" type="qcurve" smooth="yes"/>
      <point x="935" y="591"/>
      <point x="777" y="477"/>
      <point x="596" y="440" type="qcurve"/>
      <point x="558" y="492" type="line"/>
      <point x="689" y="522"/>
      <point x="796" y="586"/>
      <point x="796" y="642" type="qcurve" smooth="yes"/>
      <point x="796" y="695"/>
      <point x="657" y="761"/>
      <point x="550" y="761" type="qcurve" smooth="yes"/>
      <point x="440" y="761"/>
      <point x="277" y="690"/>
      <point x="277" y="641" type="qcurve" smooth="yes"/>
      <point x="277" y="594"/>
      <point x="406" y="549"/>
      <point x="611" y="515" type="qcurve" smooth="yes"/>
      <point x="824" y="480"/>
      <point x="1033" y="358"/>
      <point x="1033" y="246" type="qcurve" smooth="yes"/>
      <point x="1033" y="134"/>
      <point x="758" y="-22"/>
      <point x="544" y="-22" type="qcurve" smooth="yes"/>
      <point x="307" y="-22"/>
      <point x="42" y="97"/>
    </contour>
  </outline>
</glyph>
<glyph name="nine" format="1">
  <advance width="1176"/>
  <unicode hex="0039"/>
  <outline>
    <contour>
      <point x="74" y="551" type="qcurve" smooth="yes"/>
      <point x="74" y="702"/>
      <point x="349" y="876"/>
      <point x="559" y="876" type="qcurve" smooth="yes"/>
      <point x="809" y="876"/>
      <point x="1125" y="669"/>
      <point x="1125" y="508" type="qcurve" smooth="yes"/>
      <point x="1125" y="319"/>
      <point x="695" y="25"/>
      <point x="314" y="-43" type="qcurve"/>
      <point x="278" y="57" type="line"/>
      <point x="571" y="117"/>
      <point x="942" y="314"/>
      <point x="942" y="496" type="qcurve" smooth="yes"/>
      <point x="942" y="627"/>
      <point x="725" y="758"/>
      <point x="561" y="758" type="qcurve" smooth="yes"/>
      <point x="434" y="758"/>
      <point x="270" y="658"/>
      <point x="270" y="570" type="qcurve" smooth="yes"/>
      <point x="270" y="481"/>
      <point x="444" y="393"/>
      <point x="564" y="393" type="qcurve" smooth="yes"/>
      <point x="643" y="393"/>
      <point x="724" y="403"/>
      <point x="758" y="409" type="qcurve"/>
      <point x="796" y="344" type="line"/>
      <point x="758" y="322"/>
      <point x="615" y="286"/>
      <point x="495" y="286" type="qcurve" smooth="yes"/>
      <point x="332" y="286"/>
      <point x="74" y="409"/>
    </contour>
  </outline>
</glyph>
<glyph name="less" format="1">
  <advance width="701"/>
  <unicode hex="003C"/>
  <outline>
    <contour>
      <point x="40" y="442" type="qcurve"/>
      <point x="43" y="446"/>
      <point x="472" y="837"/>
      <point x="538" y="889" type="qcurve" smooth="yes"/>
      <point x="602" y="939"/>
      <point x="689" y="860"/>
      <point x="636" y="802" type="qcurve" smooth="yes"/>
      <point x="512" y="666"/>
      <point x="301" y="445"/>
      <point x="297" y="445" type="qcurve"/>
      <point x="301" y="445"/>
      <point x="515" y="230"/>
      <point x="635" y="100" type="qcurve" smooth="yes"/>
      <point x="688" y="42"/>
      <point x="604" y="-41"/>
      <point x="540" y="11" type="qcurve" smooth="yes"/>
      <point x="474" y="65"/>
      <point x="42" y="438"/>
    </contour>
  </outline>
</glyph>
<glyph name="equal" format="1">
  <advance width="1024"/>
  <unicode hex="003D"/>
  <outline>
    <contour>
      <point x="110" y="142" type="line"/>
      <point x="110" y="314" type="line"/>
      <point x="510" y="310" type="line"/>
      <point x="914" y="314" type="line"/>
      <point x="914" y="142" type="line"/>
      <point x="510" y="146" type="line"/>
    </contour>
    <contour>
      <point x="110" y="544" type="line"/>
      <point x="110" y="716" type="line"/>
      <point x="510" y="712" type="line"/>
      <point x="914" y="716" type="line"/>
      <point x="914" y="544" type="line"/>
      <point x="510" y="548" type="line"/>
    </contour>
  </outline>
</glyph>
<glyph name="greater" format="2">
  <advance width="701"/>
  <unicode hex="003E"/>
  <outline>
    <contour>
      <point x="66" y="88" type="qcurve" smooth="yes"/>
      <point x="190" y="224"/>
      <point x="401" y="445"/>
      <point x="405" y="445" type="qcurve"/>
      <point x="401" y="445"/>
      <point x="187" y="660"/>
      <point x="67" y="790" type="qcurve" smooth="yes"/>
      <point x="14" y="848"/>
      <point x="98" y="931"/>
      <point x="162" y="879" type="qcurve" smooth="yes"/>
      <point x="228" y="825"/>
      <point x="660" y="452"/>
      <point x="662" y="448" type="qcurve"/>
      <point x="659" y="444"/>
      <point x="230" y="53"/>
      <point x="164" y="1" type="qcurve" smooth="yes"/>
      <point x="100" y="-49"/>
      <point x="13" y="30"/>
    </contour>
  </outline>
</glyph>
<glyph name="bracketleft" format="2">
  <advance width="636"/>
  <unicode hex="005B"/>
  <outline>
    <contour>
      <point x="145" y="508" type="line"/>
      <point x="133" y="1062" type="line"/>
      <point x="114" y="1082" type="line"/>
      <point x="114" y="1200" type="line"/>
      <point x="572" y="1200" type="line"/>
      <point x="572" y="1081" type="line"/>
      <point x="313" y="1062" type="line"/>
      <point x="301" y="508" type="line"/>
      <point x="313" y="-42" type="line"/>
      <point x="572" y="-61" type="line"/>
      <point x="572" y="-180" type="line"/>
      <point x="114" y="-180" type="line"/>
      <point x="114" y="-62" type="line"/>
      <point x="133" y="-42" type="line"/>
    </contour>
  </outline>
</glyph>
<glyph name="backslash" format="1">
  <advance width="656"/>
  <unicode hex="005C"/>
  <outline>
    <contour>
      <point x="63" y="892" type="line"/>
      <point x="204" y="935" type="line"/>
      <point x="593" y="-118" type="line"/>
      <point x="452" y="-161" type="line"/>
    </contour>
  </outline>
</glyph>
<glyph name="braceleft" format="1">
  <advance width="693"/>
  <unicode hex="007B"/>
  <outline>
    <contour>
      <point x="60" y="481" type="line"/>
      <point x="60" y="589" type="line"/>
      <point x="191" y="599" type="line" smooth="yes"/>
      <point x="247" y="603"/>
      <point x="296" y="660"/>
      <point x="296" y="716" type="qcurve" smooth="yes"/>
      <point x="296" y="834"/>
      <point x="186" y="935"/>
      <point x="186" y="984" type="qcurve" smooth="yes"/>
      <point x="186" y="1143"/>
      <point x="357" y="1310"/>
      <point x="513" y="1310" type="qcurve" smooth="yes"/>
      <point x="584" y="1310"/>
      <point x="646" y="1303"/>
      <point x="683" y="1300" type="qcurve"/>
      <point x="683" y="1186" type="line"/>
      <point x="631" y="1188"/>
      <point x="588" y="1188"/>
      <point x="539" y="1188" type="qcurve" smooth="yes"/>
      <point x="457" y="1188"/>
      <point x="366" y="1094"/>
      <point x="366" y="996" type="qcurve" smooth="yes"/>
      <point x="366" y="985"/>
      <point x="452" y="883"/>
      <point x="452" y="792" type="qcurve" smooth="yes"/>
      <point x="452" y="697"/>
      <point x="387" y="571"/>
      <point x="336" y="550" type="qcurve"/>
      <point x="399" y="516"/>
      <point x="452" y="384"/>
      <point x="452" y="314" type="qcurve" smooth="yes"/>
      <point x="452" y="223"/>
      <point x="336" y="42"/>
      <point x="336" y="0" type="qcurve" smooth="yes"/>
      <point x="336" y="-98"/>
      <point x="432" y="-174"/>
      <point x="514" y="-174" type="qcurve" smooth="yes"/>
      <point x="563" y="-174"/>
      <point x="626" y="-174"/>
      <point x="678" y="-172" type="qcurve"/>
      <point x="678" y="-284" type="line"/>
      <point x="641" y="-287"/>
      <point x="559" y="-295"/>
      <point x="488" y="-295" type="qcurve" smooth="yes"/>
      <point x="332" y="-295"/>
      <point x="156" y="-148"/>
      <point x="156" y="12" type="qcurve" smooth="yes"/>
      <point x="156" y="61"/>
      <point x="295" y="246"/>
      <point x="295" y="364" type="qcurve"/>
      <point x="295" y="481" type="line"/>
    </contour>
  </outline>
</glyph>
<glyph name="cent" format="1">
  <advance width="974"/>
  <unicode hex="00A2"/>
  <outline>
    <contour>
      <point x="64" y="395" type="qcurve" smooth="yes"/>
      <point x="64" y="634"/>
      <point x="325" y="862"/>
      <point x="551" y="862" type="qcurve" smooth="yes"/>
      <point x="614" y="862"/>
      <point x="735" y="829"/>
      <point x="765" y="805" type="qcurve"/>
      <point x="797" y="859" type="line"/>
      <point x="885" y="830" type="line"/>
      <point x="901" y="504" type="line"/>
      <point x="803" y="487" type="line"/>
      <point x="784" y="555" type="line" smooth="yes"/>
      <point x="762" y="634"/>
      <point x="626" y="751"/>
      <point x="533" y="751" type="qcurve" smooth="yes"/>
      <point x="413" y="751"/>
      <point x="244" y="604"/>
      <point x="244" y="437" type="qcurve" smooth="yes"/>
      <point x="244" y="259"/>
      <point x="444" y="108"/>
      <point x="589" y="108" type="qcurve" smooth="yes"/>
      <point x="718" y="108"/>
      <point x="860" y="177"/>
      <point x="915" y="228" type="qcurve"/>
      <point x="966" y="168" type="line"/>
      <point x="919" y="105"/>
      <point x="725" y="-22"/>
      <point x="532" y="-22" type="qcurve" smooth="yes"/>
      <point x="344" y="-22"/>
      <point x="64" y="174"/>
    </contour>
    <contour>
      <point x="474" y="-210" type="line"/>
      <point x="474" y="52" type="line"/>
      <point x="491" y="52" type="line"/>
      <point x="491" y="520" type="line"/>
      <point x="615" y="478" type="line"/>
      <point x="615" y="52" type="line"/>
      <point x="634" y="52" type="line"/>
      <point x="634" y="-160" type="line"/>
    </contour>
    <contour>
      <point x="473" y="1010" type="line"/>
      <point x="633" y="1049" type="line"/>
      <point x="633" y="828" type="line"/>
      <point x="615" y="828" type="line"/>
      <point x="615" y="478" type="line"/>
      <point x="491" y="520" type="line"/>
      <point x="491" y="828" type="line"/>
      <point x="473" y="828" type="line"/>
    </contour>
  </outline>
</glyph>
<glyph name="sterling" format="1">
  <advance width="1072"/>
  <unicode hex="00A3"/>
  <outline>
    <contour>
      <point x="427" y="538" type="qcurve" smooth="yes"/>
      <point x="526" y="494"/>
      <point x="606" y="420"/>
      <point x="606" y="358" type="qcurve" smooth="yes"/>
      <point x="606" y="290"/>
      <point x="470" y="161"/>
      <point x="376" y="128" type="qcurve"/>
      <point x="384" y="115" type="line"/>
      <point x="784" y="108" type="line"/>
      <point x="918" y="372" type="line"/>
      <point x="1030" y="372" type="line"/>
      <point x="931" y="0" type="line"/>
      <point x="70" y="0" type="line"/>
      <point x="10" y="100" type="line"/>
      <point x="61" y="158" type="line"/>
      <point x="251" y="152"/>
      <point x="440" y="269"/>
      <point x="440" y="331" type="qcurve" smooth="yes"/>
      <point x="440" y="392"/>
      <point x="333" y="453"/>
      <point x="275" y="477" type="qcurve" smooth="yes"/>
      <point x="208" y="505"/>
      <point x="110" y="596"/>
      <point x="110" y="675" type="qcurve" smooth="yes"/>
      <point x="110" y="760"/>
      <point x="349" y="891"/>
      <point x="542" y="891" type="qcurve" smooth="yes"/>
      <point x="665" y="891"/>
      <point x="884" y="855"/>
      <point x="963" y="821" type="qcurve"/>
      <point x="899" y="692" type="line"/>
      <point x="844" y="714"/>
      <point x="661" y="755"/>
      <point x="546" y="755" type="qcurve" smooth="yes"/>
      <point x="411" y="755"/>
      <point x="279" y="699"/>
      <point x="279" y="656" type="qcurve" smooth="yes"/>
      <point x="279" y="611"/>
      <point x="346" y="574"/>
    </contour>
    <contour>
      <point x="151" y="341" type="line"/>
      <point x="127" y="477" type="line"/>
      <point x="861" y="477" type="line"/>
      <point x="831" y="341" type="line"/>
    </contour>
  </outline>
</glyph>
<glyph name="currency" format="1">
  <advance width="1368"/>
  <unicode hex="00A4"/>
  <outline>
    <contour>
      <point x="346" y="430" type="qcurve" smooth="yes"/>
      <point x="346" y="564"/>
      <point x="523" y="752"/>
      <point x="667" y="752" type="qcurve" smooth="yes"/>
      <point x="811" y="752"/>
      <point x="990" y="576"/>
      <point x="990" y="434" type="qcurve" smooth="yes"/>
      <point x="990" y="300"/>
      <point x="814" y="108"/>
      <point x="670" y="108" type="qcurve" smooth="yes"/>
      <point x="526" y="108"/>
      <point x="346" y="286"/>
    </contour>
    <contour>
      <point x="498" y="438" type="qcurve" smooth="yes"/>
      <point x="499" y="362"/>
      <point x="590" y="256"/>
      <point x="666" y="256" type="qcurve" smooth="yes"/>
      <point x="746" y="256"/>
      <point x="833" y="352"/>
      <point x="833" y="432" type="qcurve" smooth="yes"/>
      <point x="833" y="505"/>
      <point x="742" y="601"/>
      <point x="666" y="601" type="qcurve" smooth="yes"/>
      <point x="585" y="601"/>
      <point x="498" y="514"/>
    </contour>
    <contour>
      <point x="456" y="548" type="line"/>
      <point x="295" y="710" type="line"/>
      <point x="421" y="842" type="line"/>
      <point x="582" y="681" type="line"/>
    </contour>
    <contour>
      <point x="917" y="544" type="line"/>
      <point x="791" y="677" type="line"/>
      <point x="952" y="838" type="line"/>
      <point x="1078" y="705" type="line"/>
    </contour>
    <contour>
      <point x="452" y="312" type="line"/>
      <point x="578" y="179" type="line"/>
      <point x="417" y="18" type="line"/>
      <point x="291" y="151" type="line"/>
    </contour>
    <contour>
      <point x="917" y="312" type="line"/>
      <point x="1078" y="151" type="line"/>
      <point x="952" y="18" type="line"/>
      <point x="791" y="179" type="line"/>
    </contour>
  </outline>
</glyph>
<glyph name="yen" format="1">
  <advance width="1266"/>
  <unicode hex="00A5"/>
  <outline>
    <contour>
      <point x="176" y="351" type="line"/>
      <point x="146" y="477" type="line"/>
      <point x="1120" y="477" type="line"/>
      <point x="1090" y="351" type="line"/>
    </contour>
    <contour>
      <point x="547.0" y="387.0" type="line"/>
      <point x="419.0" y="489.0" type="line"/>
      <point x="142.0" y="710.0" type="line"/>
      <point x="-10.0" y="736.0" type="line"/>
      <point x="-10.0" y="850.0" type="line"/>
      <point x="517.0" y="850.0" type="line"/>
      <point x="517.0" y="736.0" type="line"/>
      <point x="370.0" y="701.0" type="line"/>
      <point x="525" y="568" type="line"/>
      <point x="658" y="448" type="line"/>
      <point x="802" y="577" type="line"/>
      <point x="964.0" y="708.0" type="line"/>
      <point x="787.0" y="736.0" type="line"/>
      <point x="787.0" y="850.0" type="line"/>
      <point x="1276.0" y="850.0" type="line"/>
      <point x="1276.0" y="736.0" type="line"/>
      <point x="1118.0" y="709.0" type="line"/>
      <point x="866.0" y="507.0" type="line"/>
      <point x="723" y="392" type="line"/>
      <point x="725.0" y="135.0" type="line"/>
      <point x="943.0" y="100.0" type="line"/>
      <point x="943.0" y="0.0" type="line"/>
      <point x="324.0" y="0.0" type="line"/>
      <point x="324.0" y="100.0" type="line"/>
      <point x="545.0" y="135.0" type="line"/>
    </contour>
    <contour>
      <point x="236" y="176" type="line"/>
      <point x="206" y="302" type="line"/>
      <point x="1060" y="302" type="line"/>
      <point x="1030" y="176" type="line"/>
    </contour>
  </outline>
</glyph>
<glyph name="brokenbar" format="1">
  <advance width="604"/>
  <unicode hex="00A6"/>
  <outline>
    <contour>
      <point x="212" y="298" type="line"/>
      <point x="231" y="510" type="line"/>
      <point x="219" y="618" type="line"/>
      <point x="207" y="840" type="line"/>
      <point x="397" y="910" type="line"/>
      <point x="385" y="618" type="line"/>
      <point x="371" y="510" type="line"/>
      <point x="392" y="358" type="line"/>
    </contour>
    <contour>
      <point x="207.0" y="-540.0" type="line"/>
      <point x="219" y="-328" type="line"/>
      <point x="233" y="-170" type="line"/>
      <point x="212" y="-2" type="line"/>
      <point x="392" y="58" type="line"/>
      <point x="373" y="-170" type="line"/>
      <point x="385" y="-328" type="line"/>
      <point x="397.0" y="-470.0" type="line"/>
    </contour>
  </outline>
</glyph>
<glyph name="logicalnot" format="1">
  <advance width="1024"/>
  <unicode hex="00AC"/>
  <outline>
    <contour>
      <point x="65" y="516" type="line"/>
      <point x="929" y="516" type="line"/>
      <point x="929" y="8" type="line"/>
      <point x="769" y="8" type="line"/>
      <point x="769" y="364" type="line"/>
      <point x="65" y="364" type="line"/>
    </contour>
  </outline>
</glyph>
<glyph name="degree" format="1">
  <advance width="882"/>
  <unicode hex="00B0"/>
  <outline>
    <contour>
      <point x="124" y="983" type="qcurve" smooth="yes"/>
      <point x="124" y="1111"/>
      <point x="302" y="1300"/>
      <point x="441" y="1300" type="qcurve" smooth="yes"/>
      <point x="580" y="1300"/>
      <point x="758" y="1111"/>
      <point x="758" y="983" type="qcurve" smooth="yes"/>
      <point x="758" y="858"/>
      <point x="580" y="668"/>
      <point x="441" y="668" type="qcurve" smooth="yes"/>
      <point x="302" y="668"/>
      <point x="124" y="858"/>
    </contour>
    <contour>
      <point x="245" y="983" type="qcurve" smooth="yes"/>
      <point x="245" y="907"/>
      <point x="356" y="789"/>
      <point x="441" y="789" type="qcurve" smooth="yes"/>
      <point x="527" y="789"/>
      <point x="637" y="907"/>
      <point x="637" y="983" type="qcurve" smooth="yes"/>
      <point x="637" y="1063"/>
      <point x="527" y="1179"/>
      <point x="441" y="1179" type="qcurve" smooth="yes"/>
      <point x="356" y="1179"/>
      <point x="245" y="1063"/>
    </contour>
  </outline>
</glyph>
<glyph name="twosuperior" format="1">
  <advance width="794"/>
  <unicode hex="00B2"/>
  <outline>
    <contour>
      <point x="79" y="101" type="line"/>
      <point x="77" y="207" type="line"/>
      <point x="94" y="274"/>
      <point x="206" y="407"/>
      <point x="350" y="483" type="qcurve" smooth="yes"/>
      <point x="468" y="545"/>
      <point x="529" y="633"/>
      <point x="529" y="698" type="qcurve" smooth="yes"/>
      <point x="529" y="753"/>
      <point x="443" y="809"/>
      <point x="389" y="809" type="qcurve" smooth="yes"/>
      <point x="306" y="809"/>
      <point x="200" y="765"/>
      <point x="145" y="715" type="qcurve"/>
      <point x="72" y="798" type="line"/>
      <point x="122" y="849"/>
      <point x="275" y="920"/>
      <point x="403" y="920" type="qcurve" smooth="yes"/>
      <point x="524" y="920"/>
      <point x="698" y="813"/>
      <point x="698" y="712" type="qcurve" smooth="yes"/>
      <point x="698" y="596"/>
      <point x="520" y="453"/>
      <point x="441" y="412" type="qcurve" smooth="yes"/>
      <point x="302" y="339"/>
      <point x="242" y="276"/>
      <point x="233" y="256" type="qcurve"/>
      <point x="233" y="230" type="line"/>
      <point x="718" y="230" type="line"/>
      <point x="718" y="101" type="line"/>
    </contour>
  </outline>
</glyph>
<glyph name="threesuperior" format="1">
  <advance width="677"/>
  <unicode hex="00B3"/>
  <outline>
    <contour>
      <point x="14" y="169" type="qcurve"/>
      <point x="65" y="262" type="line"/>
      <point x="124" y="219"/>
      <point x="233" y="185"/>
      <point x="314" y="185" type="qcurve" smooth="yes"/>
      <point x="402" y="185"/>
      <point x="491" y="240"/>
      <point x="491" y="323" type="qcurve" smooth="yes"/>
      <point x="491" y="404"/>
      <point x="351" y="469"/>
      <point x="220" y="469" type="qcurve" smooth="yes"/>
      <point x="189" y="469" type="line"/>
      <point x="173" y="564" type="line"/>
      <point x="236" y="567" type="line" smooth="yes"/>
      <point x="361" y="573"/>
      <point x="471" y="640"/>
      <point x="471" y="710" type="qcurve" smooth="yes"/>
      <point x="471" y="764"/>
      <point x="407" y="816"/>
      <point x="339" y="816" type="qcurve" smooth="yes"/>
      <point x="266" y="816"/>
      <point x="155" y="792"/>
      <point x="99" y="764" type="qcurve"/>
      <point x="58" y="822" type="line"/>
      <point x="113" y="868"/>
      <point x="252" y="920"/>
      <point x="349" y="920" type="qcurve" smooth="yes"/>
      <point x="477" y="920"/>
      <point x="616" y="818"/>
      <point x="616" y="737" type="qcurve" smooth="yes"/>
      <point x="616" y="652"/>
      <point x="500" y="552"/>
      <point x="386" y="528" type="qcurve"/>
      <point x="386" y="524" type="line"/>
      <point x="505" y="521"/>
      <point x="641" y="421"/>
      <point x="641" y="325" type="qcurve" smooth="yes"/>
      <point x="641" y="203"/>
      <point x="465" y="79"/>
      <point x="315" y="79" type="qcurve" smooth="yes"/>
      <point x="229" y="79"/>
      <point x="66" y="127"/>
    </contour>
  </outline>
</glyph>
<glyph name="periodcentered" format="1">
  <advance width="664"/>
  <unicode hex="00B7"/>
  <outline>
    <contour>
      <point x="188" y="464" type="qcurve" smooth="yes"/>
      <point x="188" y="522"/>
      <point x="269" y="608"/>
      <point x="332" y="608" type="qcurve" smooth="yes"/>
      <point x="395" y="608"/>
      <point x="476" y="522"/>
      <point x="476" y="464" type="qcurve" smooth="yes"/>
      <point x="476" y="407"/>
      <point x="395" y="321"/>
      <point x="332" y="321" type="qcurve" smooth="yes"/>
      <point x="269" y="321"/>
      <point x="188" y="407"/>
    </contour>
  </outline>
</glyph>
<glyph name="onesuperior" format="1">
  <advance width="718"/>
  <unicode hex="00B9"/>
  <outline>
    <contour>
      <point x="114" y="100" type="line"/>
      <point x="114" y="184" type="line"/>
      <point x="294" y="214" type="line"/>
      <point x="297" y="554" type="line"/>
      <point x="294" y="762" type="line"/>
      <point x="112" y="786" type="line"/>
      <point x="112" y="880" type="line"/>
      <point x="427" y="913" type="line"/>
      <point x="459" y="878" type="line"/>
      <point x="453" y="554" type="line"/>
      <point x="455" y="214" type="line"/>
      <point x="636" y="184" type="line"/>
      <point x="636" y="100" type="line"/>
    </contour>
  </outline>
</glyph>
<glyph name="multiply" format="1">
  <advance width="1024"/>
  <unicode hex="00D7"/>
  <outline>
    <contour>
      <point x="257" y="84" type="line"/>
      <point x="156" y="185" type="line"/>
      <point x="767" y="796" type="line"/>
      <point x="868" y="695" type="line"/>
    </contour>
    <contour>
      <point x="762" y="79" type="line"/>
      <point x="151" y="690" type="line"/>
      <point x="262" y="801" type="line"/>
      <point x="873" y="190" type="line"/>
    </contour>
  </outline>
</glyph>
<glyph name="florin" format="1">
  <advance width="637"/>
  <unicode hex="0192"/>
  <outline>
    <contour>
      <point x="403" y="-75" type="line" smooth="yes"/>
      <point x="407" y="-174"/>
      <point x="272" y="-309"/>
      <point x="172" y="-309" type="qcurve" smooth="yes"/>
      <point x="139" y="-309"/>
      <point x="63" y="-302"/>
      <point x="34" y="-295" type="qcurve" smooth="yes"/>
      <point x="13" y="-290" type="line"/>
      <point x="29" y="-183" type="line"/>
      <point x="53" y="-190" type="line" smooth="yes"/>
      <point x="61" y="-192"/>
      <point x="92" y="-197"/>
      <point x="108" y="-197" type="qcurve" smooth="yes"/>
      <point x="177" y="-197"/>
      <point x="251" y="-113"/>
      <point x="249" y="-40" type="qcurve" smooth="yes"/>
      <point x="230" y="360" type="line"/>
      <point x="27" y="372" type="line"/>
      <point x="17" y="466" type="line"/>
      <point x="222" y="484" type="line"/>
      <point x="216" y="664" type="line" smooth="yes"/>
      <point x="213" y="763"/>
      <point x="349" y="878"/>
      <point x="449" y="878" type="qcurve" smooth="yes"/>
      <point x="482" y="878"/>
      <point x="558" y="871"/>
      <point x="587" y="864" type="qcurve" smooth="yes"/>
      <point x="608" y="859" type="line"/>
      <point x="592" y="752" type="line"/>
      <point x="568" y="759" type="line" smooth="yes"/>
      <point x="560" y="761"/>
      <point x="529" y="766"/>
      <point x="513" y="766" type="qcurve" smooth="yes"/>
      <point x="444" y="766"/>
      <point x="366" y="701"/>
      <point x="372" y="629" type="qcurve" smooth="yes"/>
      <point x="384" y="485" type="line"/>
      <point x="601" y="485" type="line"/>
      <point x="601" y="383" type="line"/>
      <point x="384" y="372" type="line"/>
    </contour>
  </outline>
</glyph>
<glyph name="bullet" format="1">
  <advance width="784"/>
  <unicode hex="2022"/>
  <outline>
    <contour>
      <point x="104" y="423" type="qcurve" smooth="yes"/>
      <point x="104" y="539"/>
      <point x="266" y="711"/>
      <point x="392" y="711" type="qcurve" smooth="yes"/>
      <point x="518" y="711"/>
      <point x="680" y="539"/>
      <point x="680" y="423" type="qcurve" smooth="yes"/>
      <point x="680" y="309"/>
      <point x="518" y="137"/>
      <point x="392" y="137" type="qcurve" smooth="yes"/>
      <point x="266" y="137"/>
      <point x="104" y="309"/>
    </contour>
  </outline>
</glyph>
<glyph name="perthousand" format="1">
  <advance width="2948"/>
  <unicode hex="2030"/>
  <outline>
    <contour>
      <point x="74" y="816" type="qcurve" smooth="yes"/>
      <point x="74" y="993"/>
      <point x="291" y="1241"/>
      <point x="467" y="1241" type="qcurve" smooth="yes"/>
      <point x="644" y="1241"/>
      <point x="864" y="1010"/>
      <point x="864" y="821" type="qcurve" smooth="yes"/>
      <point x="864" y="645"/>
      <point x="648" y="392"/>
      <point x="472" y="392" type="qcurve" smooth="yes"/>
      <point x="295" y="392"/>
      <point x="74" y="627"/>
    </contour>
    <contour>
      <point x="238" y="830" type="qcurve" smooth="yes"/>
      <point x="238" y="694"/>
      <point x="363" y="506"/>
      <point x="467" y="506" type="qcurve" smooth="yes"/>
      <point x="578" y="506"/>
      <point x="697" y="677"/>
      <point x="697" y="820" type="qcurve" smooth="yes"/>
      <point x="697" y="950"/>
      <point x="573" y="1121"/>
      <point x="468" y="1121" type="qcurve" smooth="yes"/>
      <point x="356" y="1121"/>
      <point x="237" y="966"/>
    </contour>
    <contour>
      <point x="541" y="-53" type="line"/>
      <point x="1399" y="1139" type="line"/>
      <point x="1497" y="1071" type="line"/>
      <point x="641" y="-122" type="line"/>
    </contour>
    <contour>
      <point x="1174" y="156" type="qcurve" smooth="yes"/>
      <point x="1174" y="333"/>
      <point x="1391" y="581"/>
      <point x="1567" y="581" type="qcurve" smooth="yes"/>
      <point x="1744" y="581"/>
      <point x="1964" y="350"/>
      <point x="1964" y="161" type="qcurve" smooth="yes"/>
      <point x="1964" y="-15"/>
      <point x="1748" y="-268"/>
      <point x="1572" y="-268" type="qcurve" smooth="yes"/>
      <point x="1395" y="-268"/>
      <point x="1174" y="-33"/>
    </contour>
    <contour>
      <point x="1338" y="170" type="qcurve" smooth="yes"/>
      <point x="1338" y="34"/>
      <point x="1463" y="-154"/>
      <point x="1567" y="-154" type="qcurve" smooth="yes"/>
      <point x="1678" y="-154"/>
      <point x="1797" y="17"/>
      <point x="1797" y="160" type="qcurve" smooth="yes"/>
      <point x="1797" y="290"/>
      <point x="1673" y="461"/>
      <point x="1568" y="461" type="qcurve" smooth="yes"/>
      <point x="1456" y="461"/>
      <point x="1337" y="306"/>
    </contour>
    <contour>
      <point x="2070" y="156" type="qcurve" smooth="yes"/>
      <point x="2070" y="333"/>
      <point x="2287" y="581"/>
      <point x="2463" y="581" type="qcurve" smooth="yes"/>
      <point x="2640" y="581"/>
      <point x="2860" y="350"/>
      <point x="2860" y="161" type="qcurve" smooth="yes"/>
      <point x="2860" y="-15"/>
      <point x="2644" y="-268"/>
      <point x="2468" y="-268" type="qcurve" smooth="yes"/>
      <point x="2291" y="-268"/>
      <point x="2070" y="-33"/>
    </contour>
    <contour>
      <point x="2234" y="170" type="qcurve" smooth="yes"/>
      <point x="2234" y="34"/>
      <point x="2359" y="-154"/>
      <point x="2463" y="-154" type="qcurve" smooth="yes"/>
      <point x="2574" y="-154"/>
      <point x="2693" y="17"/>
      <point x="2693" y="160" type="qcurve" smooth="yes"/>
      <point x="2693" y="290"/>
      <point x="2569" y="461"/>
      <point x="2464" y="461" type="qcurve" smooth="yes"/>
      <point x="2352" y="461"/>
      <point x="2233" y="306"/>
    </contour>
  </outline>
</glyph>
<glyph name="fraction" format="1">
  <advance width="420"/>
  <unicode hex="2044"/>
  <outline>
    <contour>
      <point x="-407" y="53" type="line"/>
      <point x="751" y="957" type="line"/>
      <point x="827" y="864" type="line"/>
      <point x="-331" y="-40" type="line"/>
    </contour>
  </outline>
</glyph>
<glyph name="commercialMinusSign" format="1">
  <advance width="834"/>
  <unicode hex="2052"/>
  <outline>
    <contour>
      <point x="78" y="28" type="line"/>
      <point x="629" y="938" type="line"/>
      <point x="756" y="871" type="line"/>
      <point x="201" y="-45" type="line"/>
    </contour>
    <contour>
      <point x="477" y="121" type="qcurve" smooth="yes"/>
      <point x="477" y="179"/>
      <point x="558" y="265"/>
      <point x="621" y="265" type="qcurve" smooth="yes"/>
      <point x="684" y="265"/>
      <point x="765" y="179"/>
      <point x="765" y="121" type="qcurve" smooth="yes"/>
      <point x="765" y="64"/>
      <point x="684" y="-22"/>
      <point x="621" y="-22" type="qcurve" smooth="yes"/>
      <point x="558" y="-22"/>
      <point x="477" y="64"/>
    </contour>
    <contour>
      <point x="107" y="774" type="qcurve" smooth="yes"/>
      <point x="107" y="832"/>
      <point x="188" y="918"/>
      <point x="251" y="918" type="qcurve" smooth="yes"/>
      <point x="314" y="918"/>
      <point x="395" y="832"/>
      <point x="395" y="774" type="qcurve" smooth="yes"/>
      <point x="395" y="717"/>
      <point x="314" y="631"/>
      <point x="251" y="631" type="qcurve" smooth="yes"/>
      <point x="188" y="631"/>
      <point x="107" y="717"/>
    </contour>
  </outline>
</glyph>
<glyph name="foursuperior" format="1">
  <advance width="768"/>
  <unicode hex="2074"/>
  <outline>
    <contour>
      <point x="-4" y="433" type="line"/>
      <point x="440" y="947" type="line"/>
      <point x="535" y="927" type="line"/>
      <point x="557" y="899" type="line"/>
      <point x="560" y="368" type="line"/>
      <point x="560" y="203" type="line"/>
      <point x="706" y="184" type="line"/>
      <point x="706" y="99" type="line"/>
      <point x="274" y="99" type="line"/>
      <point x="274" y="184" type="line"/>
      <point x="424" y="203" type="line"/>
      <point x="430" y="367" type="line"/>
      <point x="435" y="786" type="line"/>
      <point x="151" y="456" type="line"/>
      <point x="152" y="438" type="line"/>
      <point x="731" y="434" type="line"/>
      <point x="731" y="341" type="line"/>
      <point x="20" y="339" type="line"/>
    </contour>
  </outline>
</glyph>
<glyph name="colonsign" format="1">
  <advance width="1312"/>
  <unicode hex="20A1"/>
  <outline>
    <contour>
      <point x="114.0" y="413.0" type="qcurve" smooth="yes"/>
      <point x="114.0" y="630.0"/>
      <point x="470.0" y="878.0"/>
      <point x="705.0" y="878.0" type="qcurve" smooth="yes"/>
      <point x="880.0" y="878.0"/>
      <point x="1055.0" y="829.0"/>
      <point x="1109.0" y="802.0" type="qcurve"/>
      <point x="1109" y="802" type="line"/>
      <point x="1223.0" y="776.0" type="line"/>
      <point x="1212.0" y="423.0" type="line"/>
      <point x="1126.0" y="423.0" type="line"/>
      <point x="1093.0" y="576.0" type="line" smooth="yes"/>
      <point x="1074.0" y="664.0"/>
      <point x="897.0" y="761.0"/>
      <point x="718.0" y="761.0" type="qcurve" smooth="yes"/>
      <point x="543.0" y="761.0"/>
      <point x="308.0" y="608.0"/>
      <point x="308.0" y="450.0" type="qcurve" smooth="yes"/>
      <point x="308.0" y="319.0"/>
      <point x="554.0" y="169.0"/>
      <point x="718.0" y="169.0" type="qcurve" smooth="yes"/>
      <point x="909.0" y="169.0"/>
      <point x="1155.0" y="268.0"/>
      <point x="1215.0" y="353.0" type="qcurve"/>
      <point x="1302.0" y="277.0" type="line"/>
      <point x="1228.0" y="169.0"/>
      <point x="946.0" y="18.0"/>
      <point x="707.0" y="18.0" type="qcurve" smooth="yes"/>
      <point x="455.0" y="18.0"/>
      <point x="114.0" y="222.0"/>
    </contour>
    <contour>
      <point x="641" y="-149" type="line"/>
      <point x="695" y="87" type="line"/>
      <point x="706" y="82" type="line"/>
      <point x="803" y="495" type="line"/>
      <point x="915" y="426" type="line"/>
      <point x="831" y="80" type="line"/>
      <point x="844" y="75" type="line"/>
      <point x="798" y="-137" type="line"/>
    </contour>
    <contour>
      <point x="908" y="1011" type="line"/>
      <point x="1063" y="1012" type="line"/>
      <point x="1013" y="790" type="line"/>
      <point x="1001" y="794" type="line"/>
      <point x="915" y="426" type="line"/>
      <point x="803" y="495" type="line"/>
      <point x="880" y="822" type="line"/>
      <point x="867" y="827" type="line"/>
    </contour>
    <contour>
      <point x="363" y="-79" type="line"/>
      <point x="426" y="165" type="line"/>
      <point x="437" y="160" type="line"/>
      <point x="513" y="495" type="line"/>
      <point x="625" y="426" type="line"/>
      <point x="558" y="133" type="line"/>
      <point x="571" y="128" type="line"/>
      <point x="520" y="-67" type="line"/>
    </contour>
    <contour>
      <point x="618" y="1011" type="line"/>
      <point x="773" y="1012" type="line"/>
      <point x="730" y="826" type="line"/>
      <point x="718" y="830" type="line"/>
      <point x="625" y="426" type="line"/>
      <point x="513" y="495" type="line"/>
      <point x="589" y="828" type="line"/>
      <point x="576" y="833" type="line"/>
    </contour>
  </outline>
</glyph>
<glyph name="franc" format="1">
  <advance width="1060"/>
  <unicode hex="20A3"/>
  <outline>
    <contour>
      <point x="82" y="0" type="line"/>
      <point x="82" y="100" type="line"/>
      <point x="290" y="137" type="line"/>
      <point x="292" y="460" type="line"/>
      <point x="290" y="702" type="line"/>
      <point x="82" y="736" type="line"/>
      <point x="82" y="850" type="line"/>
      <point x="976" y="850" type="line"/>
      <point x="1036" y="500" type="line"/>
      <point x="926" y="500" type="line"/>
      <point x="831" y="732" type="line"/>
      <point x="500" y="732" type="line"/>
      <point x="470" y="712" type="line"/>
      <point x="468" y="472" type="line"/>
      <point x="470" y="132" type="line"/>
      <point x="698" y="100" type="line"/>
      <point x="698" y="0" type="line"/>
    </contour>
    <contour>
      <point x="380" y="431" type="line"/>
      <point x="380" y="533" type="line"/>
      <point x="775" y="540" type="line"/>
      <point x="810" y="682" type="line"/>
      <point x="920" y="682" type="line"/>
      <point x="920" y="286" type="line"/>
      <point x="810" y="286" type="line"/>
      <point x="775" y="424" type="line"/>
    </contour>
    <contour>
      <point x="56" y="181" type="line"/>
      <point x="26" y="307" type="line"/>
      <point x="790" y="307" type="line"/>
      <point x="760" y="181" type="line"/>
    </contour>
  </outline>
</glyph>
<glyph name="naira" format="1">
  <advance width="1529"/>
  <unicode hex="20A6"/>
  <outline>
    <contour>
      <point x="82.0" y="0.0" type="line"/>
      <point x="82.0" y="100.0" type="line"/>
      <point x="290.0" y="135.0" type="line"/>
      <point x="290.0" y="413.0" type="line"/>
      <point x="290.0" y="702.0" type="line"/>
      <point x="82.0" y="736.0" type="line"/>
      <point x="82.0" y="850.0" type="line"/>
      <point x="458.0" y="850.0" type="line"/>
      <point x="821.0" y="503.0" type="line"/>
      <point x="1157.0" y="182.0" type="line"/>
      <point x="1154.0" y="432.0" type="line"/>
      <point x="1150.0" y="702.0" type="line"/>
      <point x="922.0" y="736.0" type="line"/>
      <point x="922.0" y="850.0" type="line"/>
      <point x="1478.0" y="850.0" type="line"/>
      <point x="1478.0" y="736.0" type="line"/>
      <point x="1270.0" y="702.0" type="line"/>
      <point x="1268.0" y="432.0" type="line"/>
      <point x="1264.0" y="0.0" type="line"/>
      <point x="1134.0" y="0.0" type="line"/>
      <point x="702.0" y="411.0" type="line"/>
      <point x="410.0" y="689.0" type="line"/>
      <point x="410.0" y="411.0" type="line"/>
      <point x="410.0" y="135.0" type="line"/>
      <point x="628.0" y="100.0" type="line"/>
      <point x="628.0" y="0.0" type="line"/>
    </contour>
    <contour>
      <point x="1494" y="235" type="line"/>
      <point x="1202" y="235" type="line"/>
      <point x="1202" y="281" type="line"/>
      <point x="937" y="281" type="line"/>
      <point x="866" y="354" type="line"/>
      <point x="1202" y="354" type="line"/>
      <point x="1202" y="382" type="line"/>
      <point x="1444" y="382" type="line"/>
    </contour>
    <contour>
      <point x="74" y="236" type="line"/>
      <point x="35" y="382" type="line"/>
      <point x="356" y="382" type="line"/>
      <point x="356" y="354" type="line"/>
      <point x="866" y="354" type="line"/>
      <point x="959" y="252" type="line"/>
      <point x="356" y="252" type="line"/>
      <point x="356" y="236" type="line"/>
    </contour>
    <contour>
      <point x="1494" y="466" type="line"/>
      <point x="1202" y="466" type="line"/>
      <point x="1202" y="490" type="line"/>
      <point x="737" y="490" type="line"/>
      <point x="639" y="598" type="line"/>
      <point x="1202" y="598" type="line"/>
      <point x="1202" y="614" type="line"/>
      <point x="1444" y="614" type="line"/>
    </contour>
    <contour>
      <point x="74" y="466" type="line"/>
      <point x="35" y="614" type="line"/>
      <point x="356" y="614" type="line"/>
      <point x="356" y="572" type="line"/>
      <point x="656" y="572" type="line"/>
      <point x="737" y="491" type="line"/>
      <point x="356" y="491" type="line"/>
      <point x="356" y="466" type="line"/>
    </contour>
  </outline>
</glyph>
<glyph name="peseta" format="1">
  <advance width="2286"/>
  <unicode hex="20A7"/>
  <outline>
    <contour>
      <point x="82" y="0" type="line"/>
      <point x="82" y="100" type="line"/>
      <point x="290" y="137" type="line"/>
      <point x="292" y="354" type="line"/>
      <point x="290" y="702" type="line"/>
      <point x="82" y="736" type="line"/>
      <point x="82" y="850" type="line"/>
      <point x="589" y="850" type="line" smooth="yes"/>
      <point x="797" y="850"/>
      <point x="1034" y="717"/>
      <point x="1034" y="557" type="qcurve" smooth="yes"/>
      <point x="1034" y="388"/>
      <point x="804" y="260"/>
      <point x="595" y="260" type="qcurve" smooth="yes"/>
      <point x="552" y="260"/>
      <point x="418" y="277"/>
      <point x="388" y="287" type="qcurve"/>
      <point x="397" y="393" type="line"/>
      <point x="429" y="382"/>
      <point x="520" y="372"/>
      <point x="555" y="372" type="qcurve" smooth="yes"/>
      <point x="697" y="372"/>
      <point x="846" y="443"/>
      <point x="846" y="558" type="qcurve" smooth="yes"/>
      <point x="846" y="677"/>
      <point x="685" y="732"/>
      <point x="552" y="732" type="qcurve" smooth="yes"/>
      <point x="499" y="732" type="line"/>
      <point x="470" y="712" type="line"/>
      <point x="468" y="420" type="line"/>
      <point x="470" y="132" type="line"/>
      <point x="678" y="100" type="line"/>
      <point x="678" y="0" type="line"/>
    </contour>
    <contour>
      <point x="986" y="602" type="line"/>
      <point x="986" y="676" type="line"/>
      <point x="1108" y="691"/>
      <point x="1214" y="787"/>
      <point x="1244" y="876" type="qcurve"/>
      <point x="1291" y="876" type="line"/>
      <point x="1346" y="828" type="line"/>
      <point x="1337" y="714" type="line"/>
      <point x="1540" y="714" type="line"/>
      <point x="1540" y="612" type="line"/>
      <point x="1325" y="612" type="line"/>
      <point x="1317" y="453" type="line"/>
      <point x="1326" y="216" type="line" smooth="yes"/>
      <point x="1328" y="161"/>
      <point x="1365" y="109"/>
      <point x="1425" y="109" type="qcurve" smooth="yes"/>
      <point x="1517" y="109" type="line"/>
      <point x="1517" y="29" type="line"/>
      <point x="1284" y="-8" type="line"/>
      <point x="1207" y="-8"/>
      <point x="1142" y="73"/>
      <point x="1142" y="163" type="qcurve"/>
      <point x="1149" y="367" type="line"/>
      <point x="1149" y="570" type="line"/>
    </contour>
    <contour>
      <point x="1511" y="13" type="line"/>
      <point x="1509" y="280" type="line"/>
      <point x="1610" y="280" type="line"/>
      <point x="1621" y="237" type="line" smooth="yes"/>
      <point x="1637" y="176"/>
      <point x="1773" y="93"/>
      <point x="1882" y="93" type="qcurve" smooth="yes"/>
      <point x="1977" y="93"/>
      <point x="2095" y="144"/>
      <point x="2095" y="199" type="qcurve" smooth="yes"/>
      <point x="2095" y="243"/>
      <point x="2014" y="277"/>
      <point x="1848" y="300" type="qcurve" smooth="yes"/>
      <point x="1673" y="324"/>
      <point x="1544" y="441"/>
      <point x="1544" y="536" type="qcurve" smooth="yes"/>
      <point x="1544" y="629"/>
      <point x="1704" y="743"/>
      <point x="1834" y="743" type="qcurve" smooth="yes"/>
      <point x="1922" y="743"/>
      <point x="2025" y="714"/>
      <point x="2061" y="697" type="qcurve"/>
      <point x="2074" y="719" type="line"/>
      <point x="2160" y="719" type="line"/>
      <point x="2160" y="465" type="line"/>
      <point x="2060" y="465" type="line"/>
      <point x="2041" y="557" type="line" smooth="yes"/>
      <point x="2035" y="588"/>
      <point x="1939" y="629"/>
      <point x="1853" y="629" type="qcurve" smooth="yes"/>
      <point x="1767" y="629"/>
      <point x="1688" y="581"/>
      <point x="1688" y="544" type="qcurve" smooth="yes"/>
      <point x="1688" y="509"/>
      <point x="1756" y="472"/>
      <point x="1916" y="452" type="qcurve" smooth="yes"/>
      <point x="2069" y="433"/>
      <point x="2237" y="345"/>
      <point x="2241" y="239" type="qcurve" smooth="yes"/>
      <point x="2245" y="120"/>
      <point x="2057" y="-17"/>
      <point x="1904" y="-17" type="qcurve" smooth="yes"/>
      <point x="1813" y="-17"/>
      <point x="1683" y="17"/>
      <point x="1632" y="46" type="qcurve"/>
      <point x="1603" y="6" type="line"/>
    </contour>
  </outline>
</glyph>
<glyph name="won" format="1">
  <advance width="2102"/>
  <unicode hex="20A9"/>
  <outline>
    <contour>
      <point x="0.0" y="736.0" type="line"/>
      <point x="0.0" y="850.0" type="line"/>
      <point x="524.0" y="850.0" type="line"/>
      <point x="524.0" y="736.0" type="line"/>
      <point x="366.0" y="695.0" type="line"/>
      <point x="540.0" y="454.0" type="line"/>
      <point x="758.0" y="152.0" type="line"/>
      <point x="872.0" y="285.0" type="line"/>
      <point x="1072.0" y="519.0" type="line"/>
      <point x="1129.0" y="418.0" type="line"/>
      <point x="960.0" y="212.0" type="line"/>
      <point x="779.0" y="-8.0" type="line"/>
      <point x="664.0" y="-8.0" type="line"/>
      <point x="388.0" y="384.0" type="line"/>
      <point x="168.0" y="697.0" type="line"/>
    </contour>
    <contour>
      <point x="718.0" y="744.0" type="line"/>
      <point x="718.0" y="850.0" type="line"/>
      <point x="1252.0" y="850.0" type="line"/>
      <point x="1252.0" y="744.0" type="line"/>
      <point x="1084.0" y="703.0" type="line"/>
      <point x="1268.0" y="417.0" type="line"/>
      <point x="1435.0" y="156.0" type="line"/>
      <point x="1629.0" y="436.0" type="line"/>
      <point x="1813.0" y="702.0" type="line"/>
      <point x="1616.0" y="736.0" type="line"/>
      <point x="1616.0" y="850.0" type="line"/>
      <point x="2152.0" y="850.0" type="line"/>
      <point x="2152.0" y="736.0" type="line"/>
      <point x="1964.0" y="697.0" type="line"/>
      <point x="1746.0" y="386.0" type="line"/>
      <point x="1471.0" y="-8.0" type="line"/>
      <point x="1349.0" y="-8.0" type="line"/>
      <point x="1118.0" y="347.0" type="line"/>
      <point x="886.0" y="705.0" type="line"/>
    </contour>
    <contour>
      <point x="1924" y="215" type="line"/>
      <point x="1565" y="215" type="line"/>
      <point x="1565" y="261" type="line"/>
      <point x="1273" y="261" type="line"/>
      <point x="1226" y="343" type="line"/>
      <point x="1641" y="343" type="line"/>
      <point x="1641" y="362" type="line"/>
      <point x="1963" y="362" type="line"/>
    </contour>
    <contour>
      <point x="2013" y="466" type="line"/>
      <point x="1721" y="466" type="line"/>
      <point x="1721" y="488" type="line"/>
      <point x="1131" y="488" type="line"/>
      <point x="1070" y="595" type="line"/>
      <point x="1811" y="595" type="line"/>
      <point x="1811" y="614" type="line"/>
      <point x="2061" y="614" type="line"/>
    </contour>
    <contour>
      <point x="197" y="215" type="line"/>
      <point x="158" y="362" type="line"/>
      <point x="500" y="362" type="line"/>
      <point x="500" y="323" type="line"/>
      <point x="1240" y="323" type="line"/>
      <point x="1283" y="251" type="line"/>
      <point x="589" y="251" type="line"/>
      <point x="589" y="215" type="line"/>
    </contour>
    <contour>
      <point x="108" y="466" type="line"/>
      <point x="60" y="614" type="line"/>
      <point x="360" y="614" type="line"/>
      <point x="360" y="595" type="line"/>
      <point x="1071" y="595" type="line"/>
      <point x="1131" y="488" type="line"/>
      <point x="420" y="488" type="line"/>
      <point x="420" y="466" type="line"/>
    </contour>
  </outline>
</glyph>
<glyph name="dong" format="1">
  <advance width="1207"/>
  <unicode hex="20AB"/>
  <outline>
    <contour>
      <point x="68" y="222" type="qcurve" smooth="yes"/>
      <point x="68" y="338"/>
      <point x="337" y="479"/>
      <point x="556" y="479" type="qcurve" smooth="yes"/>
      <point x="636" y="479"/>
      <point x="791" y="457"/>
      <point x="840" y="441" type="qcurve"/>
      <point x="832" y="746" type="line"/>
      <point x="665" y="756" type="line"/>
      <point x="665" y="850" type="line"/>
      <point x="943" y="884" type="line"/>
      <point x="974" y="884" type="line"/>
      <point x="1002" y="852" type="line"/>
      <point x="999" y="538" type="line"/>
      <point x="1008" y="165" type="line"/>
      <point x="1187" y="170" type="line"/>
      <point x="1187" y="90" type="line"/>
      <point x="902" y="0" type="line"/>
      <point x="865" y="61" type="line"/>
      <point x="844" y="66" type="line"/>
      <point x="796" y="36"/>
      <point x="634" y="-9"/>
      <point x="511" y="-9" type="qcurve" smooth="yes"/>
      <point x="314" y="-9"/>
      <point x="68" y="116"/>
    </contour>
    <contour>
      <point x="252" y="238" type="qcurve" smooth="yes"/>
      <point x="252" y="181"/>
      <point x="416" y="117"/>
      <point x="562" y="117" type="qcurve" smooth="yes"/>
      <point x="667" y="117"/>
      <point x="802" y="144"/>
      <point x="842" y="163" type="qcurve"/>
      <point x="848" y="245" type="line"/>
      <point x="848" y="330" type="line"/>
      <point x="808" y="348"/>
      <point x="675" y="369"/>
      <point x="582" y="369" type="qcurve" smooth="yes"/>
      <point x="431" y="369"/>
      <point x="252" y="294"/>
    </contour>
    <contour>
      <point x="125" y="-276" type="line"/>
      <point x="125" y="-124" type="line"/>
      <point x="596" y="-128" type="line"/>
      <point x="1077" y="-124" type="line"/>
      <point x="1077" y="-276" type="line"/>
      <point x="597" y="-272" type="line"/>
    </contour>
    <contour>
      <point x="496" y="549" type="line"/>
      <point x="497" y="680" type="line"/>
      <point x="914" y="677" type="line"/>
      <point x="1130" y="680" type="line"/>
      <point x="1130" y="549" type="line"/>
      <point x="913" y="553" type="line"/>
    </contour>
  </outline>
</glyph>
<glyph name="euro" format="1">
  <advance width="1099"/>
  <unicode hex="20AC"/>
  <outline>
    <contour>
      <point x="204" y="427" type="qcurve" smooth="yes"/>
      <point x="204" y="654"/>
      <point x="523" y="884"/>
      <point x="742" y="884" type="qcurve" smooth="yes"/>
      <point x="830" y="884"/>
      <point x="971" y="846"/>
      <point x="1033" y="800" type="qcurve"/>
      <point x="966" y="706" type="line"/>
      <point x="904" y="736"/>
      <point x="817" y="752"/>
      <point x="747" y="752" type="qcurve" smooth="yes"/>
      <point x="580" y="752"/>
      <point x="385" y="609"/>
      <point x="386" y="439" type="qcurve" smooth="yes"/>
      <point x="387" y="275"/>
      <point x="593" y="90"/>
      <point x="767" y="90" type="qcurve" smooth="yes"/>
      <point x="816" y="90"/>
      <point x="938" y="109"/>
      <point x="1007" y="147" type="qcurve"/>
      <point x="1062" y="66" type="line"/>
      <point x="996" y="9"/>
      <point x="842" y="-30"/>
      <point x="774" y="-30" type="qcurve" smooth="yes"/>
      <point x="516" y="-30"/>
      <point x="204" y="208"/>
    </contour>
    <contour>
      <point x="70" y="497" type="line"/>
      <point x="94" y="633" type="line"/>
      <point x="894" y="633" type="line"/>
      <point x="924" y="497" type="line"/>
    </contour>
    <contour>
      <point x="53" y="240" type="line"/>
      <point x="49" y="376" type="line"/>
      <point x="913" y="376" type="line"/>
      <point x="883" y="240" type="line"/>
    </contour>
  </outline>
</glyph>
<glyph name="kip" format="1">
  <advance width="1331"/>
  <unicode hex="20AD"/>
  <outline>
    <contour>
      <point x="82.0" y="0.0" type="line"/>
      <point x="82.0" y="100.0" type="line"/>
      <point x="280.0" y="135.0" type="line"/>
      <point x="280.0" y="405.0" type="line"/>
      <point x="280.0" y="702.0" type="line"/>
      <point x="82.0" y="736.0" type="line"/>
      <point x="82.0" y="850.0" type="line"/>
      <point x="638.0" y="850.0" type="line"/>
      <point x="638.0" y="736.0" type="line"/>
      <point x="460.0" y="702.0" type="line"/>
      <point x="460.0" y="411.0" type="line"/>
      <point x="460.0" y="135.0" type="line"/>
      <point x="648.0" y="100.0" type="line"/>
      <point x="648.0" y="0.0" type="line"/>
    </contour>
    <contour>
      <point x="404.0" y="289.0" type="line"/>
      <point x="405.0" y="401.0" type="line"/>
      <point x="901.0" y="688.0" type="line"/>
      <point x="794.0" y="736.0" type="line"/>
      <point x="794.0" y="850.0" type="line"/>
      <point x="1260.0" y="850.0" type="line"/>
      <point x="1260.0" y="736.0" type="line"/>
      <point x="1102.0" y="688.0" type="line"/>
      <point x="704.0" y="460.0" type="line"/>
      <point x="659.0" y="434.0" type="line"/>
    </contour>
    <contour>
      <point x="579" y="439" type="line"/>
      <point x="684" y="538" type="line"/>
      <point x="1209" y="135" type="line"/>
      <point x="1346" y="100" type="line"/>
      <point x="1346" y="0" type="line"/>
      <point x="833" y="0" type="line"/>
      <point x="833" y="100" type="line"/>
      <point x="981" y="135" type="line"/>
    </contour>
    <contour>
      <point x="1225" y="359" type="line"/>
      <point x="743" y="359" type="line"/>
      <point x="743" y="386" type="line"/>
      <point x="604" y="386" type="line"/>
      <point x="537" y="488" type="line"/>
      <point x="623" y="488" type="line"/>
      <point x="623" y="507" type="line"/>
      <point x="1175" y="507" type="line"/>
    </contour>
    <contour>
      <point x="65" y="359" type="line"/>
      <point x="26" y="505" type="line"/>
      <point x="367" y="505" type="line"/>
      <point x="367" y="487" type="line"/>
      <point x="537" y="487" type="line"/>
      <point x="604" y="385" type="line"/>
      <point x="367" y="385" type="line"/>
      <point x="367" y="359" type="line"/>
    </contour>
  </outline>
</glyph>
<glyph name="peso" format="1">
  <advance width="1349"/>
  <unicode hex="20B1"/>
  <outline>
    <contour>
      <point x="82" y="0" type="line"/>
      <point x="82" y="100" type="line"/>
      <point x="275" y="137" type="line"/>
      <point x="277" y="354" type="line"/>
      <point x="275" y="772" type="line"/>
      <point x="82" y="786" type="line"/>
      <point x="82" y="900" type="line"/>
      <point x="765" y="900" type="line" smooth="yes"/>
      <point x="978" y="900"/>
      <point x="1183" y="746"/>
      <point x="1183" y="543" type="qcurve" smooth="yes"/>
      <point x="1183" y="369"/>
      <point x="920" y="159"/>
      <point x="768" y="159" type="qcurve" smooth="yes"/>
      <point x="539" y="159"/>
      <point x="409" y="185"/>
      <point x="373" y="198" type="qcurve"/>
      <point x="382" y="304" type="line"/>
      <point x="431" y="291"/>
      <point x="551" y="272"/>
      <point x="638" y="272" type="qcurve" smooth="yes"/>
      <point x="826" y="272"/>
      <point x="998" y="405"/>
      <point x="998" y="538" type="qcurve" smooth="yes"/>
      <point x="998" y="717"/>
      <point x="842" y="812"/>
      <point x="658" y="812" type="qcurve" smooth="yes"/>
      <point x="490" y="812" type="line"/>
      <point x="456" y="790" type="line"/>
      <point x="453" y="364" type="line"/>
      <point x="455" y="132" type="line"/>
      <point x="673" y="100" type="line"/>
      <point x="673" y="0" type="line"/>
    </contour>
    <contour>
      <point x="1303" y="354" type="line"/>
      <point x="1042" y="354" type="line"/>
      <point x="1042" y="368" type="line"/>
      <point x="739" y="368" type="line"/>
      <point x="666" y="480" type="line"/>
      <point x="1072" y="480" type="line"/>
      <point x="1072" y="495" type="line"/>
      <point x="1343" y="495" type="line"/>
    </contour>
    <contour>
      <point x="74" y="355" type="line"/>
      <point x="35" y="494" type="line"/>
      <point x="356" y="494" type="line"/>
      <point x="356" y="480" type="line"/>
      <point x="666" y="480" type="line"/>
      <point x="739" y="369" type="line"/>
      <point x="356" y="369" type="line"/>
      <point x="356" y="355" type="line"/>
    </contour>
    <contour>
      <point x="1334" y="559" type="line"/>
      <point x="1102" y="559" type="line"/>
      <point x="1102" y="570" type="line"/>
      <point x="667" y="570" type="line"/>
      <point x="589" y="688" type="line"/>
      <point x="1082" y="688" type="line"/>
      <point x="1082" y="701" type="line"/>
      <point x="1374" y="701" type="line"/>
    </contour>
    <contour>
      <point x="74" y="559" type="line"/>
      <point x="35" y="701" type="line"/>
      <point x="356" y="701" type="line"/>
      <point x="356" y="688" type="line"/>
      <point x="589" y="688" type="line"/>
      <point x="667" y="571" type="line"/>
      <point x="356" y="571" type="line"/>
      <point x="356" y="559" type="line"/>
    </contour>
  </outline>
</glyph>
<glyph name="guarani" format="1">
  <advance width="1463"/>
  <unicode hex="20B2"/>
  <outline>
    <contour>
      <point x="80" y="444" type="qcurve" smooth="yes"/>
      <point x="80" y="675"/>
      <point x="450" y="920"/>
      <point x="736" y="920" type="qcurve" smooth="yes"/>
      <point x="891" y="920"/>
      <point x="1060" y="884"/>
      <point x="1131" y="850" type="qcurve"/>
      <point x="1147" y="887" type="line"/>
      <point x="1251" y="887" type="line"/>
      <point x="1284" y="458" type="line"/>
      <point x="1168" y="441" type="line"/>
      <point x="1130" y="593" type="line" smooth="yes"/>
      <point x="1105" y="692"/>
      <point x="901" y="784"/>
      <point x="715" y="784" type="qcurve" smooth="yes"/>
      <point x="523" y="784"/>
      <point x="271" y="614"/>
      <point x="271" y="468" type="qcurve" smooth="yes"/>
      <point x="271" y="312"/>
      <point x="515" y="113"/>
      <point x="767" y="113" type="qcurve" smooth="yes"/>
      <point x="984" y="113"/>
      <point x="1188" y="229"/>
      <point x="1188" y="274" type="qcurve" smooth="yes"/>
      <point x="1188" y="298" type="line" smooth="yes"/>
      <point x="1188" y="336"/>
      <point x="1091" y="349"/>
      <point x="946" y="363" type="qcurve"/>
      <point x="969" y="468" type="line"/>
      <point x="1440" y="468" type="line"/>
      <point x="1460" y="368" type="line"/>
      <point x="1349" y="323" type="line"/>
      <point x="1358" y="230" type="line"/>
      <point x="1295" y="150"/>
      <point x="1012" y="-13"/>
      <point x="735" y="-13" type="qcurve" smooth="yes"/>
      <point x="452" y="-13"/>
      <point x="80" y="236"/>
    </contour>
    <contour>
      <point x="422" y="-122" type="line"/>
      <point x="499" y="86" type="line"/>
      <point x="517" y="81" type="line"/>
      <point x="683" y="551" type="line"/>
      <point x="791" y="483" type="line"/>
      <point x="638" y="54" type="line"/>
      <point x="658" y="50" type="line"/>
      <point x="595" y="-109" type="line"/>
    </contour>
    <contour>
      <point x="824" y="1018" type="line"/>
      <point x="995" y="1018" type="line"/>
      <point x="932" y="824" type="line"/>
      <point x="911" y="828" type="line"/>
      <point x="791" y="483" type="line"/>
      <point x="683" y="551" type="line"/>
      <point x="791" y="855" type="line"/>
      <point x="771" y="860" type="line"/>
    </contour>
  </outline>
</glyph>
<glyph name="cedi" format="1">
  <advance width="1312"/>
  <unicode hex="20B5"/>
  <outline>
    <contour>
      <point x="114" y="413" type="qcurve" smooth="yes"/>
      <point x="114" y="630"/>
      <point x="470" y="878"/>
      <point x="705" y="878" type="qcurve" smooth="yes"/>
      <point x="880" y="878"/>
      <point x="1055" y="829"/>
      <point x="1109" y="802" type="qcurve"/>
      <point x="1146" y="888" type="line"/>
      <point x="1233" y="866" type="line"/>
      <point x="1212" y="423" type="line"/>
      <point x="1126" y="423" type="line"/>
      <point x="1093" y="576" type="line" smooth="yes"/>
      <point x="1074" y="664"/>
      <point x="897" y="761"/>
      <point x="718" y="761" type="qcurve" smooth="yes"/>
      <point x="543" y="761"/>
      <point x="308" y="608"/>
      <point x="308" y="450" type="qcurve" smooth="yes"/>
      <point x="308" y="319"/>
      <point x="554" y="169"/>
      <point x="718" y="169" type="qcurve" smooth="yes"/>
      <point x="909" y="169"/>
      <point x="1155" y="268"/>
      <point x="1215" y="353" type="qcurve"/>
      <point x="1302" y="277" type="line"/>
      <point x="1228" y="169"/>
      <point x="946" y="18"/>
      <point x="707" y="18" type="qcurve" smooth="yes"/>
      <point x="455" y="18"/>
      <point x="114" y="222"/>
    </contour>
    <contour>
      <point x="483" y="-149" type="line"/>
      <point x="537" y="87" type="line"/>
      <point x="556" y="82" type="line"/>
      <point x="662" y="522" type="line"/>
      <point x="774" y="453" type="line"/>
      <point x="677" y="55" type="line"/>
      <point x="698" y="50" type="line"/>
      <point x="656" y="-137" type="line"/>
    </contour>
    <contour>
      <point x="749" y="975" type="line"/>
      <point x="920" y="976" type="line"/>
      <point x="877" y="790" type="line"/>
      <point x="857" y="794" type="line"/>
      <point x="774" y="453" type="line"/>
      <point x="662" y="522" type="line"/>
      <point x="736" y="822" type="line"/>
      <point x="715" y="827" type="line"/>
    </contour>
  </outline>
</glyph>
<glyph name="rupeeIndian" format="1">
  <advance width="1120"/>
  <unicode hex="20B9"/>
  <outline>
    <contour>
      <point x="-37" y="854" type="line"/>
      <point x="566" y="835" type="line"/>
      <point x="1162" y="857" type="line"/>
      <point x="1122" y="705" type="line"/>
      <point x="766" y="719" type="line"/>
      <point x="804" y="682"/>
      <point x="839" y="606"/>
      <point x="839" y="542" type="qcurve" smooth="yes"/>
      <point x="839" y="473"/>
      <point x="707" y="314"/>
      <point x="581" y="285" type="qcurve"/>
      <point x="694" y="251"/>
      <point x="815" y="196"/>
      <point x="856" y="164" type="qcurve" smooth="yes"/>
      <point x="918" y="114"/>
      <point x="1030" y="107"/>
      <point x="1124" y="112" type="qcurve"/>
      <point x="1124" y="8" type="line"/>
      <point x="913" y="-2" type="line"/>
      <point x="806" y="0"/>
      <point x="710" y="46"/>
      <point x="647" y="109" type="qcurve" smooth="yes"/>
      <point x="577" y="178"/>
      <point x="398" y="265"/>
      <point x="276" y="274" type="qcurve"/>
      <point x="103" y="258" type="line"/>
      <point x="78" y="385" type="line"/>
      <point x="344" y="385" type="line" smooth="yes"/>
      <point x="500" y="385"/>
      <point x="642" y="494"/>
      <point x="642" y="577" type="qcurve" smooth="yes"/>
      <point x="642" y="642"/>
      <point x="559" y="716"/>
      <point x="489" y="726" type="qcurve"/>
      <point x="2" y="712" type="line"/>
    </contour>
    <contour>
      <point x="780" y="610" type="line"/>
      <point x="780" y="625" type="line"/>
      <point x="1071" y="625" type="line"/>
      <point x="1031" y="484" type="line"/>
      <point x="750" y="484" type="line"/>
      <point x="750" y="498" type="line"/>
      <point x="34" y="469" type="line"/>
      <point x="-5" y="608" type="line"/>
    </contour>
  </outline>
</glyph>
<glyph name="liraTurkish" format="1">
  <advance width="1176"/>
  <unicode hex="20BA"/>
  <outline>
    <contour>
      <point x="336.0" y="-29.0" type="line"/>
      <point x="249.0" y="47.0" type="line"/>
      <point x="290.0" y="132.0" type="line"/>
      <point x="302" y="404" type="line"/>
      <point x="290" y="702" type="line"/>
      <point x="112" y="716" type="line"/>
      <point x="112" y="850" type="line"/>
      <point x="346" y="853" type="line"/>
      <point x="696" y="890" type="line"/>
      <point x="709" y="771" type="line"/>
      <point x="470" y="692" type="line"/>
      <point x="456" y="466" type="line"/>
      <point x="465" y="159" type="line"/>
      <point x="505" y="132" type="line"/>
      <point x="614" y="153"/>
      <point x="889" y="302"/>
      <point x="962" y="462" type="qcurve" smooth="yes"/>
      <point x="1045" y="644" type="line"/>
      <point x="1165" y="622" type="line"/>
      <point x="1051" y="279" type="line"/>
      <point x="912" y="148"/>
      <point x="618" y="18"/>
      <point x="461" y="-8" type="qcurve" smooth="yes"/>
    </contour>
    <contour>
      <point x="122" y="99" type="line"/>
      <point x="86" y="232" type="line"/>
      <point x="391" y="346" type="line"/>
      <point x="391" y="342" type="line"/>
      <point x="794" y="511" type="line"/>
      <point x="779" y="344" type="line"/>
      <point x="390" y="204" type="line"/>
      <point x="390" y="200" type="line"/>
    </contour>
    <contour>
      <point x="104" y="319" type="line"/>
      <point x="68" y="455" type="line"/>
      <point x="374" y="569" type="line"/>
      <point x="374" y="566" type="line"/>
      <point x="826" y="741" type="line"/>
      <point x="806" y="566" type="line"/>
      <point x="372" y="422" type="line"/>
      <point x="373" y="420" type="line"/>
    </contour>
  </outline>
</glyph>
<glyph name="manat" format="1">
  <advance width="1434"/>
  <unicode hex="20BC"/>
  <outline>
    <contour>
      <point x="1418" y="114" type="line"/>
      <point x="1418" y="0" type="line"/>
      <point x="892" y="0" type="line"/>
      <point x="892" y="114" type="line"/>
      <point x="1069" y="148" type="line"/>
      <point x="1074" y="256" type="line"/>
      <point x="1070" y="366" type="line" smooth="yes"/>
      <point x="1063" y="558"/>
      <point x="873" y="726"/>
      <point x="694" y="726" type="qcurve" smooth="yes"/>
      <point x="533" y="726"/>
      <point x="334" y="543"/>
      <point x="330" y="346" type="qcurve" smooth="yes"/>
      <point x="328" y="256" type="line"/>
      <point x="330" y="148" type="line"/>
      <point x="518" y="114" type="line"/>
      <point x="518" y="0" type="line"/>
      <point x="12" y="0" type="line"/>
      <point x="12" y="114" type="line"/>
      <point x="190" y="148" type="line"/>
      <point x="192" y="256" type="line"/>
      <point x="189" y="347" type="line" smooth="yes"/>
      <point x="180" y="607"/>
      <point x="470" y="871"/>
      <point x="709" y="871" type="qcurve" smooth="yes"/>
      <point x="966" y="871"/>
      <point x="1255" y="598"/>
      <point x="1250" y="359" type="qcurve" smooth="yes"/>
      <point x="1248" y="256" type="line"/>
      <point x="1250" y="148" type="line"/>
    </contour>
    <contour>
      <point x="615" y="110" type="line"/>
      <point x="632" y="352" type="line"/>
      <point x="634" y="790" type="line"/>
      <point x="605" y="970" type="line"/>
      <point x="795" y="1040" type="line"/>
      <point x="767" y="790" type="line"/>
      <point x="771" y="452" type="line"/>
      <point x="795" y="180" type="line"/>
    </contour>
  </outline>
</glyph>
<glyph name="ruble" format="1">
  <advance width="1179"/>
  <unicode hex="20BD"/>
  <outline>
    <contour>
      <point x="82" y="0" type="line"/>
      <point x="82" y="100" type="line"/>
      <point x="270" y="132" type="line"/>
      <point x="272" y="464" type="line"/>
      <point x="270" y="702" type="line"/>
      <point x="82" y="736" type="line"/>
      <point x="82" y="850" type="line"/>
      <point x="769" y="850" type="line" smooth="yes"/>
      <point x="973" y="850"/>
      <point x="1168" y="725"/>
      <point x="1168" y="618" type="qcurve" smooth="yes"/>
      <point x="1168" y="498"/>
      <point x="925" y="348"/>
      <point x="628" y="348" type="qcurve" smooth="yes"/>
      <point x="492" y="348"/>
      <point x="215" y="393"/>
      <point x="97" y="423" type="qcurve"/>
      <point x="106" y="539" type="line"/>
      <point x="216" y="506"/>
      <point x="458" y="470"/>
      <point x="610" y="470" type="qcurve" smooth="yes"/>
      <point x="825" y="470"/>
      <point x="982" y="528"/>
      <point x="982" y="600" type="qcurve" smooth="yes"/>
      <point x="982" y="672"/>
      <point x="874" y="732"/>
      <point x="723" y="732" type="qcurve" smooth="yes"/>
      <point x="485" y="732" type="line"/>
      <point x="451" y="710" type="line"/>
      <point x="448" y="474" type="line"/>
      <point x="450" y="127" type="line"/>
      <point x="658" y="100" type="line"/>
      <point x="658" y="0" type="line"/>
    </contour>
    <contour>
      <point x="86" y="209" type="line"/>
      <point x="66" y="305" type="line"/>
      <point x="840" y="305" type="line"/>
      <point x="809" y="169" type="line"/>
    </contour>
  </outline>
</glyph>
<glyph name="minus" format="2">
  <advance width="1024"/>
  <unicode hex="2212"/>
  <outline>
    <contour>
      <point x="80" y="364" type="line"/>
      <point x="80" y="516" type="line"/>
      <point x="944" y="516" type="line"/>
      <point x="944" y="364" type="line"/>
    </contour>
  </outline>
</glyph>
<glyph name="divisionslash" format="1">
  <advance width="656"/>
  <unicode hex="2215"/>
  <outline>
    <contour>
      <point x="-53" y="-93" type="line"/>
      <point x="563" y="881" type="line"/>
      <point x="685" y="807" type="line"/>
      <point x="69" y="-167" type="line"/>
    </contour>
  </outline>
</glyph>
<glyph name="bulletoperator" format="1">
  <advance width="1024"/>
  <unicode hex="2219"/>
  <outline>
    <contour>
      <point x="368" y="452" type="qcurve" smooth="yes"/>
      <point x="368" y="510"/>
      <point x="449" y="596"/>
      <point x="512" y="596" type="qcurve" smooth="yes"/>
      <point x="575" y="596"/>
      <point x="656" y="510"/>
      <point x="656" y="452" type="qcurve" smooth="yes"/>
      <point x="656" y="395"/>
      <point x="575" y="309"/>
      <point x="512" y="309" type="qcurve" smooth="yes"/>
      <point x="449" y="309"/>
      <point x="368" y="395"/>
    </contour>
  </outline>
</glyph>
<glyph name="approxequal" format="1">
  <advance width="1024"/>
  <unicode hex="2248"/>
  <outline>
    <contour>
      <point x="38" y="559" type="line"/>
      <point x="100" y="652"/>
      <point x="280" y="764"/>
      <point x="368" y="764" type="qcurve"/>
      <point x="711" y="629" type="line"/>
      <point x="771" y="629"/>
      <point x="863" y="717"/>
      <point x="896" y="771" type="qcurve"/>
      <point x="986" y="719" type="line"/>
      <point x="936" y="615"/>
      <point x="792" y="474"/>
      <point x="660" y="474" type="qcurve"/>
      <point x="340" y="601" type="line"/>
      <point x="279" y="601"/>
      <point x="163" y="547"/>
      <point x="106" y="495" type="qcurve"/>
    </contour>
    <contour>
      <point x="38" y="179" type="line"/>
      <point x="100" y="272"/>
      <point x="280" y="384"/>
      <point x="368" y="384" type="qcurve"/>
      <point x="711" y="249" type="line"/>
      <point x="771" y="249"/>
      <point x="863" y="337"/>
      <point x="896" y="391" type="qcurve"/>
      <point x="986" y="339" type="line"/>
      <point x="936" y="235"/>
      <point x="792" y="94"/>
      <point x="660" y="94" type="qcurve"/>
      <point x="340" y="221" type="line"/>
      <point x="279" y="221"/>
      <point x="163" y="167"/>
      <point x="106" y="115" type="qcurve"/>
    </contour>
  </outline>
</glyph>
<glyph name="notequal" format="1">
  <advance width="1024"/>
  <unicode hex="2260"/>
  <outline>
    <contour>
      <point x="100" y="147" type="line"/>
      <point x="100" y="309" type="line"/>
      <point x="510" y="305" type="line"/>
      <point x="924" y="309" type="line"/>
      <point x="924" y="147" type="line"/>
      <point x="510" y="151" type="line"/>
    </contour>
    <contour>
      <point x="100" y="549" type="line"/>
      <point x="100" y="711" type="line"/>
      <point x="510" y="707" type="line"/>
      <point x="924" y="711" type="line"/>
      <point x="924" y="549" type="line"/>
      <point x="510" y="553" type="line"/>
    </contour>
    <contour>
      <point x="236" y="-96" type="line"/>
      <point x="645" y="1019" type="line"/>
      <point x="786" y="976" type="line"/>
      <point x="377" y="-139" type="line"/>
    </contour>
  </outline>
</glyph>
<glyph name="lessequal" format="1">
  <advance width="1024"/>
  <unicode hex="2264"/>
  <outline>
    <contour>
      <point x="130" y="-146" type="line"/>
      <point x="130" y="6" type="line"/>
      <point x="934" y="6" type="line"/>
      <point x="934" y="-146" type="line"/>
    </contour>
    <contour>
      <point x="162" y="508" type="qcurve"/>
      <point x="162" y="508"/>
      <point x="631" y="845"/>
      <point x="698" y="894" type="qcurve" smooth="yes"/>
      <point x="764" y="942"/>
      <point x="843" y="849"/>
      <point x="785" y="797" type="qcurve" smooth="yes"/>
      <point x="661" y="687"/>
      <point x="453" y="528"/>
      <point x="388" y="505" type="qcurve"/>
      <point x="447" y="482"/>
      <point x="673" y="309"/>
      <point x="787" y="201" type="qcurve"/>
      <point x="845" y="148"/>
      <point x="764" y="58"/>
      <point x="697" y="106" type="qcurve" smooth="yes"/>
      <point x="631" y="154"/>
      <point x="162" y="508"/>
    </contour>
  </outline>
</glyph>
<glyph name="greaterequal" format="1">
  <advance width="1024"/>
  <unicode hex="2265"/>
  <outline>
    <contour>
      <point x="130" y="-146" type="line"/>
      <point x="130" y="6" type="line"/>
      <point x="934" y="6" type="line"/>
      <point x="934" y="-146" type="line"/>
    </contour>
    <contour>
      <point x="242" y="203" type="qcurve" smooth="yes"/>
      <point x="366" y="313"/>
      <point x="574" y="472"/>
      <point x="639" y="495" type="qcurve"/>
      <point x="580" y="518"/>
      <point x="354" y="691"/>
      <point x="240" y="799" type="qcurve"/>
      <point x="182" y="852"/>
      <point x="263" y="942"/>
      <point x="330" y="894" type="qcurve" smooth="yes"/>
      <point x="396" y="846"/>
      <point x="865" y="492"/>
      <point x="865" y="492" type="qcurve"/>
      <point x="865" y="492"/>
      <point x="396" y="155"/>
      <point x="329" y="106" type="qcurve" smooth="yes"/>
      <point x="263" y="58"/>
      <point x="184" y="151"/>
    </contour>
  </outline>
</glyph>
